<svg aria-hidden="true" style="position: absolute; width: 0; height: 0; overflow: hidden;" version="1.1" xmlns="http://www.w3.org/2000/svg" xmlns:xlink="http://www.w3.org/1999/xlink">
  <defs>
  
    <symbol id="icon-Audio" viewBox="0 0 26 32">
    <path fill="#979898" style="fill: var(--color1, #979898)" d="M6.004 24.378c-3.314 0-6-2.684-6-5.998v-3.996c0.001-3.313 2.687-5.998 6-5.998 0 0 0 0 0 0h2l10-7.998v31.988l-10-7.998zM26.004 16.382c-0.008 3.697-2.529 6.803-5.944 7.702l-0.056 0.012v-4.27c1.201-0.698 1.997-1.978 2-3.444v-0c0-1.474-0.81-2.75-2-3.444v-4.27c3.471 0.911 5.992 4.017 6 7.713v0.001z"></path>
    </symbol>

    <symbol id="icon-Button" viewBox="0 0 32 32">
    <path d="M10.752 31.997l-2.755-3.309 10.57-12.694-10.57-12.691 2.752-3.312 13.254 16.003z"></path>
    </symbol>

    <symbol id="icon-Heart" viewBox="0 0 32 32">
    <path fill="#979898" style="fill: var(--color1, #979898)" d="M29.642 16.24l-13.642 14.136-13.64-14.136c-1.448-1.447-2.344-3.446-2.344-5.655s0.896-4.208 2.344-5.655l0-0c1.448-1.446 3.448-2.341 5.656-2.341s4.208 0.894 5.656 2.341l-0-0 2.328 2.83 2.328-2.83c1.448-1.448 3.448-2.344 5.657-2.344 4.418 0 7.999 3.581 7.999 7.999 0 2.208-0.895 4.208-2.342 5.655l0-0z"></path>
    </symbol>

    <symbol id="icon-Options" viewBox="0 0 32 32">
    <path fill="#979898" style="fill: var(--color1, #979898)" d="M32.002 16.176v7.996c0 3.314-2.686 6-6 6v0h-20c-3.314 0-6-2.686-6-6v0-9.996c0.002-3.312 2.688-5.996 6-5.996h1.524c-0.985 1.219-1.808 2.623-2.406 4.142l-0.038 0.108c-0.642 0.332-1.074 0.988-1.080 1.745v9.997c0.001 1.104 0.896 1.998 2 1.998h20c1.105 0 2-0.895 2-2v0-4.998zM31.202 11.776l-8 5.996c-0.33 0.252-0.748 0.403-1.201 0.403-0.326 0-0.633-0.078-0.904-0.217l0.011 0.005c-0.66-0.335-1.105-1.009-1.106-1.786v-2c-5.187 0.003-9.604 3.299-11.274 7.91l-0.026 0.084c-0.44-1.189-0.696-2.562-0.7-3.994v-0.002c0.002-6.626 5.374-11.996 12-11.996 0 0 0 0 0 0v0-2c0.002-1.103 0.897-1.996 2-1.996 0.453 0 0.87 0.15 1.205 0.404l-0.005-0.004 8 5.996c0.489 0.368 0.801 0.946 0.801 1.598s-0.313 1.23-0.796 1.594l-0.005 0.004z"></path>
    </symbol>

    <symbol id="icon-Speech_bubble" viewBox="0 0 32 32">
    <path fill="#979898" style="fill: var(--color1, #979898)" d="M26.005 25.973h-11.998l-4 5.997-4-5.995c-0.001 0-0.001 0-0.002 0-3.313 0-5.999-2.686-5.999-5.999v0-13.993c0.001-3.312 2.687-5.997 5.999-5.997 0.001 0 0.002 0 0.002 0h20c3.312 0 5.998 2.685 5.999 5.997v13.993c-0.001 3.312-2.687 5.997-5.999 5.997v0z"></path>
    </symbol>

  </defs>
</svg>
